<?xml version="1.0" standalone="no"?>
<!DOCTYPE svg PUBLIC "-//W3C//DTD SVG 20010904//EN"
 "http://www.w3.org/TR/2001/REC-SVG-20010904/DTD/svg10.dtd">
<svg version="1.0" xmlns="http://www.w3.org/2000/svg"
 width="512.000000pt" height="512.000000pt" viewBox="0 0 512.000000 512.000000"
 preserveAspectRatio="xMidYMid meet">
<metadata>
Created by potrace 1.11, written by Peter Selinger 2001-2013
</metadata>
<g transform="translate(0.000000,512.000000) scale(0.100000,-0.100000)"
fill="#000000" stroke="none">
<path d="M1886 5104 c-316 -62 -575 -280 -686 -576 -55 -148 -54 -132 -56
-978 -2 -432 -3 -791 -3 -797 -1 -7 -17 -27 -37 -45 -90 -82 -162 -219 -181
-345 -47 -310 167 -602 481 -657 18 -3 41 -20 60 -43 17 -21 59 -67 93 -102
35 -36 63 -65 63 -66 0 0 -162 -1 -360 0 l-361 0 -47 -54 c-26 -30 -51 -59
-57 -65 -5 -6 -39 -45 -75 -86 -36 -41 -72 -81 -80 -90 -8 -9 -24 -27 -35 -41
-11 -13 -56 -65 -100 -115 -44 -50 -105 -119 -135 -154 -30 -35 -61 -70 -69
-77 -7 -8 -29 -32 -47 -54 l-34 -41 0 -359 0 -359 150 0 150 0 -1 97 c0 54 0
191 0 304 l1 206 86 99 c48 54 101 115 118 134 17 19 92 105 166 190 74 85
138 157 141 160 6 4 831 5 849 1 3 -1 6 -61 6 -134 2 -148 13 -217 51 -309
180 -443 759 -560 1098 -222 79 80 131 163 165 266 26 79 32 134 34 283 l1
119 410 1 c226 0 419 -1 430 -3 11 -3 47 -36 80 -75 33 -38 147 -169 253 -290
l192 -220 1 -101 c0 -56 0 -192 -1 -304 l-1 -202 151 0 150 0 0 364 c0 200 -3
366 -8 368 -4 2 -83 91 -177 198 -93 107 -174 200 -180 206 -5 6 -30 35 -55
64 -25 29 -49 58 -55 64 -17 19 -150 169 -178 201 l-26 30 -360 0 c-199 0
-361 0 -361 0 0 1 31 32 68 71 37 38 79 83 92 101 17 21 37 34 60 38 332 58
548 391 465 717 -28 111 -73 187 -158 272 l-50 48 0 490 c0 472 1 491 19 501
10 5 53 44 95 86 134 134 216 285 254 466 14 66 17 143 17 445 0 201 0 371 -1
378 -2 19 -2377 16 -2475 -4z m2175 -301 c4 -77 0 -379 -5 -421 -32 -260 -239
-473 -506 -521 -19 -3 -501 -6 -1070 -6 l-1035 0 -1 210 c0 240 7 290 58 405
75 167 257 308 438 340 25 4 512 8 1083 9 981 1 1037 0 1038 -16z m-385 -1715
c-1 -271 0 -500 2 -508 2 -9 27 -28 56 -43 71 -37 114 -81 144 -145 63 -138 6
-295 -132 -362 -50 -24 -75 -30 -139 -31 l-77 -2 -47 -66 c-82 -114 -148 -182
-258 -266 -399 -302 -963 -293 -1355 20 -78 63 -141 124 -178 174 -15 20 -29
38 -33 41 -3 3 -19 26 -37 51 l-31 46 -78 2 c-143 3 -244 74 -283 199 -42 135
19 267 156 339 29 15 54 34 56 43 2 8 3 230 2 493 l-1 477 41 1 c23 0 495 1
1049 1 764 1 1022 4 1065 14 31 6 62 12 68 13 7 1 10 -149 10 -491z m-1356
-1924 c146 -28 391 -23 538 11 44 11 68 12 72 5 10 -16 3 -231 -9 -276 -28
-102 -107 -195 -209 -242 -49 -23 -70 -27 -152 -27 -81 0 -103 4 -150 26 -154
72 -221 189 -225 393 -2 129 0 140 29 132 11 -3 59 -13 106 -22z"/>
<path d="M1860 2950 c0 -113 3 -150 13 -151 14 -1 242 -1 270 0 15 1 17 15 17
150 l0 150 -150 0 -150 0 0 -149z"/>
<path d="M2949 3097 c-1 -1 -3 -68 -4 -149 -2 -145 -2 -148 19 -149 129 -5
276 -2 277 6 0 6 1 73 2 150 l2 140 -147 2 c-82 2 -149 2 -149 0z"/>
<path d="M2199 2346 c-6 -7 -2 -289 5 -294 12 -7 700 -7 712 0 5 4 9 71 9 150
l-1 143 -362 1 c-199 1 -362 1 -363 0z"/>
</g>
</svg>
