<svg id="Слой_1" data-name="Слой 1" xmlns="http://www.w3.org/2000/svg" viewBox="0 0 50 50"><defs><style>.cls-1{fill:#1dace1;}.cls-2{fill:#fff;}.cls-3{fill:#d3e6f2;}.cls-4{fill:#b6d0e5;}</style></defs><title>Telegram</title><circle class="cls-1" cx="25" cy="25" r="25"/><path class="cls-2" d="M37,15.25,33.2,34.63a1.41,1.41,0,0,1-2,.7l-8.75-6.8L19.27,27l-5.36-1.83s-.82-.3-.9-.94.93-1,.93-1l21.31-8.47S37,14,37,15.25"/><path class="cls-3" d="M21.78,34.41s-.26,0-.57-1S19.27,27,19.27,27l12.87-8.28s.74-.46.72,0c0,0,.13.08-.27.45s-10.11,9.22-10.11,9.22"/><path class="cls-4" d="M25.81,31.14l-3.47,3.19a.59.59,0,0,1-.57.08l.67-5.94"/></svg>