<?xml version="1.0" encoding="utf-8"?>
<!-- www.vectorico.com -->
<svg version="1.1" id="Viber" xmlns="http://www.w3.org/2000/svg" xmlns:xlink="http://www.w3.org/1999/xlink" x="0px" y="0px"
	 viewBox="0 0 64 64" style="enable-background:new 0 0 64 64;" xml:space="preserve">
<style type="text/css">
	.st0{fill:#7B519D;}
	.st1{fill:#FFFFFF;}
	.st2{fill:#F1F2F2;}
</style>
<title>viber icon</title>
<ellipse class="st0" cx="32" cy="32" rx="31" ry="31"/>
<path id="_x3C_Path_x3E_" class="st1" d="M45.6,39.1c-1-0.8-2.1-1.5-3.1-2.3c-2.1-1.5-4-1.6-5.6,0.8c-0.9,1.3-2.1,1.4-3.4,0.8
	c-3.5-1.6-6.3-4.1-7.9-7.7c-0.7-1.6-0.7-3,1-4.2c0.9-0.6,1.8-1.3,1.7-2.6c-0.1-1.7-4.2-7.4-5.8-8c-0.7-0.3-1.3-0.2-2,0
	c-3.8,1.3-5.4,4.4-3.9,8.1C21,35.2,29,43,39.9,47.7c0.6,0.3,1.3,0.4,1.7,0.5c2.5,0,5.4-2.4,6.3-4.8C48.7,41.1,47,40.2,45.6,39.1
	L45.6,39.1z"/>
<path id="_x3C_Path_x3E__1_" class="st2" d="M33.3,16.7c8,1.2,11.7,5,12.7,13.1c0.1,0.7-0.2,1.9,0.9,1.9s0.8-1.1,0.9-1.8
	c0.1-7.6-6.5-14.6-14.2-14.9c-0.6,0.1-1.8-0.4-1.9,0.9C31.6,16.7,32.6,16.6,33.3,16.7L33.3,16.7z"/>
<path id="_x3C_Path_x3E__2_" class="st2" d="M34.9,18.9c-0.8-0.1-1.8-0.5-2,0.6c-0.2,1.1,0.9,1,1.7,1.2c4.9,1.1,6.7,2.9,7.5,7.8
	c0.1,0.7-0.1,1.8,1.1,1.6c0.9-0.1,0.6-1.1,0.7-1.6C43.9,23.8,39.8,19.5,34.9,18.9L34.9,18.9z"/>
<path id="_x3C_Path_x3E__3_" class="st2" d="M35.3,22.8c-0.5,0-1,0.1-1.2,0.6c-0.3,0.8,0.3,1,0.9,1.1c2,0.3,3.1,1.5,3.3,3.5
	c0.1,0.5,0.4,1,0.9,0.9c0.7-0.1,0.8-0.7,0.8-1.4C40.1,25.3,37.5,22.7,35.3,22.8L35.3,22.8z"/>
</svg>
