<svg id="Слой_1" data-name="Слой 1" xmlns="http://www.w3.org/2000/svg" viewBox="0 0 50 50"><defs><style>.cls-1{fill:#5ab24c;}.cls-2{fill:#fff;}</style></defs><title>Whatsapp</title><circle class="cls-1" cx="25" cy="25" r="25"/><path class="cls-2" d="M30.5,27.38c-.3-.15-1.77-.87-2-1s-.47-.15-.67.15-.77,1-.95,1.17-.35.22-.65.07a8.07,8.07,0,0,1-2.4-1.47,8.91,8.91,0,0,1-1.66-2.06c-.17-.29,0-.46.13-.6s.3-.35.45-.52a2.21,2.21,0,0,0,.3-.5.55.55,0,0,0,0-.52c-.08-.15-.67-1.61-.92-2.21s-.49-.5-.67-.51h-.57a1.09,1.09,0,0,0-.8.37,3.33,3.33,0,0,0-1,2.48,5.76,5.76,0,0,0,1.22,3.07,13.28,13.28,0,0,0,5.1,4.49,16.7,16.7,0,0,0,1.7.62,4.06,4.06,0,0,0,1.88.12,3.06,3.06,0,0,0,2-1.41,2.45,2.45,0,0,0,.17-1.41c-.07-.12-.27-.2-.57-.35M25,34.79h0A10,10,0,0,1,20,33.41l-.36-.22-3.76,1,1-3.65-.24-.37A9.92,9.92,0,1,1,35,24.9,9.93,9.93,0,0,1,25,34.79m8.45-18.3A11.93,11.93,0,0,0,14.69,30.84L13,37l6.34-1.66A12,12,0,0,0,25,36.79h0A11.94,11.94,0,0,0,37,24.9a11.78,11.78,0,0,0-3.5-8.41"/></svg>